<?xml version="1.0" standalone="no"?>
<!DOCTYPE svg PUBLIC "-//W3C//DTD SVG 20010904//EN"
 "http://www.w3.org/TR/2001/REC-SVG-20010904/DTD/svg10.dtd">
<svg version="1.0" xmlns="http://www.w3.org/2000/svg"
 width="512.000000pt" height="512.000000pt" viewBox="0 0 512.000000 512.000000"
 preserveAspectRatio="xMidYMid meet">

<g transform="translate(0.000000,512.000000) scale(0.100000,-0.100000)"
fill="#000000" stroke="none">
<path d="M2495 5114 c-11 -2 -193 -90 -405 -195 -366 -181 -388 -190 -457
-196 -42 -3 -91 -1 -119 6 -26 7 -184 70 -351 141 -167 72 -324 135 -349 141
-132 34 -286 -45 -346 -176 l-23 -50 -3 -1150 c-2 -764 1 -1195 8 -1284 40
-496 219 -965 522 -1368 98 -130 324 -361 451 -461 308 -241 658 -412 1020
-497 l117 -28 118 28 c319 75 637 221 916 419 108 78 136 107 136 143 0 31
-42 73 -73 73 -14 0 -62 -28 -113 -66 -259 -191 -564 -336 -871 -414 l-112
-28 -98 24 c-339 83 -694 259 -960 475 -407 331 -697 781 -828 1284 -63 242
-85 430 -85 741 l0 192 85 3 c71 3 88 8 106 26 32 31 30 80 -5 110 -23 20 -38
23 -107 23 l-79 0 0 49 0 49 85 3 c71 3 88 8 106 26 32 31 30 80 -5 110 -23
20 -38 23 -107 23 l-79 0 0 49 0 49 85 3 c71 3 88 8 106 26 32 31 30 80 -5
110 -23 20 -38 23 -107 23 l-79 0 0 49 0 49 85 3 c71 3 88 8 106 26 32 31 30
80 -5 110 -23 20 -38 23 -107 23 l-79 0 0 463 c0 460 0 463 22 507 28 55 94
94 148 87 19 -2 174 -64 343 -136 169 -72 333 -138 364 -146 74 -19 189 -19
265 0 33 9 226 99 429 200 225 113 381 185 399 185 18 0 175 -73 400 -185 205
-102 397 -192 428 -200 72 -19 192 -19 264 0 31 8 195 74 365 146 169 72 324
134 343 136 54 7 120 -32 148 -87 22 -44 22 -47 22 -507 l0 -463 -81 0 c-76 0
-82 -2 -110 -29 -37 -37 -37 -65 0 -102 28 -27 34 -29 110 -29 l81 0 0 -50 0
-50 -81 0 c-76 0 -82 -2 -110 -29 -16 -16 -29 -39 -29 -51 0 -12 13 -35 29
-51 28 -27 34 -29 110 -29 l81 0 0 -50 0 -50 -81 0 c-76 0 -82 -2 -110 -29
-37 -37 -37 -65 0 -102 28 -27 34 -29 110 -29 l81 0 0 -50 0 -50 -81 0 c-76 0
-82 -2 -110 -29 -37 -37 -37 -65 0 -102 28 -27 34 -29 112 -29 l82 0 -6 -267
c-7 -303 -24 -446 -81 -663 -101 -391 -269 -703 -558 -1033 -76 -86 -83 -113
-43 -152 45 -46 74 -35 160 57 316 341 542 797 630 1272 43 237 46 348 43
1561 l-3 1140 -22 47 c-54 117 -155 182 -283 183 -74 0 -79 -2 -365 -124 -394
-169 -411 -175 -510 -168 l-80 5 -385 192 c-364 181 -389 192 -450 195 -36 2
-74 2 -85 -1z"/>
<path d="M2205 4419 c-350 -175 -419 -197 -625 -206 -146 -6 -266 11 -401 57
-99 34 -130 37 -169 13 -57 -34 -55 10 -55 -982 0 -833 2 -926 18 -1031 38
-244 103 -452 203 -652 66 -132 98 -154 158 -107 34 27 35 76 2 132 -46 79
-118 262 -151 382 -63 231 -68 273 -72 698 l-5 387 686 0 686 0 0 -1210 c0
-741 -4 -1210 -9 -1210 -22 0 -181 64 -274 111 -247 124 -431 271 -648 517
-53 59 -82 66 -125 29 -40 -35 -37 -75 12 -134 124 -152 309 -317 489 -436
186 -123 533 -270 635 -269 60 0 236 60 385 131 655 313 1086 899 1202 1633
13 88 17 235 20 987 3 487 2 905 -2 930 -5 32 -16 54 -40 78 -41 41 -78 43
-171 8 -37 -14 -109 -34 -161 -45 -114 -23 -135 -38 -131 -93 2 -30 10 -45 30
-60 26 -19 32 -20 100 -8 40 8 106 24 146 36 l72 23 0 -429 0 -429 -685 0
-685 0 0 555 0 555 231 -116 c414 -207 609 -247 609 -125 0 55 -25 71 -153
103 -97 24 -152 47 -415 178 -277 137 -308 150 -355 149 -46 0 -85 -17 -352
-150z m275 -594 l0 -555 -685 0 -685 0 0 430 c0 237 2 430 3 430 2 0 30 -9 63
-20 95 -33 220 -51 354 -51 244 -1 354 31 685 195 138 69 253 125 258 125 4 1
7 -249 7 -554z m1530 -1048 c0 -339 -6 -437 -36 -592 -119 -611 -519 -1129
-1079 -1400 -60 -29 -143 -65 -182 -79 l-73 -26 0 1220 0 1220 685 0 685 0 0
-343z"/>
</g>
</svg>
